<?xml version="1.0" encoding="utf-8"?>
<!-- Generator: Adobe Illustrator 19.0.0, SVG Export Plug-In . SVG Version: 6.00 Build 0)  -->
<svg version="1.1" id="Layer_1" xmlns="http://www.w3.org/2000/svg" xmlns:xlink="http://www.w3.org/1999/xlink" x="0px" y="0px"
	 viewBox="-38 -143 422 728" style="enable-background:new -38 -143 422 728;" xml:space="preserve">
<style type="text/css">
	.st0{fill:none;stroke:#625B72;stroke-width:3;stroke-miterlimit:10;}
	.st1{fill:none;stroke:#625B72;stroke-width:9;stroke-miterlimit:10;}
</style>
<g>
	<g id="XMLID_1_">
		
			<rect id="XMLID_2_" x="164.6" y="414.8" transform="matrix(0.6211 -0.7837 0.7837 0.6211 -290.959 366.2057)" class="st0" width="137.4" height="138.5"/>
		
			<rect id="XMLID_3_" x="151.8" y="317.5" transform="matrix(0.6211 -0.7837 0.7837 0.6211 -219.3382 319.7401)" class="st1" width="138.5" height="138.5"/>
		<line id="XMLID_4_" class="st0" x1="323.5" y1="375.4" x2="330.2" y2="473.2"/>
		<line id="XMLID_5_" class="st0" x1="209.7" y1="290" x2="221.4" y2="387.5"/>
		<line id="XMLID_6_" class="st0" x1="119.1" y1="399.8" x2="135.7" y2="494.8"/>
		<line id="XMLID_7_" class="st0" x1="232.3" y1="483.7" x2="244.9" y2="581"/>
	</g>
	<g id="XMLID_41_">
		<polygon id="XMLID_26_" class="st0" points="67.2,296 191.6,242.4 248.2,373.9 127.9,429.7 		"/>
		<line id="XMLID_24_" class="st1" x1="31.6" y1="388.7" x2="123.7" y2="427.9"/>
		<line id="XMLID_23_" class="st1" x1="-21.4" y1="256" x2="68.1" y2="296.6"/>
		<line id="XMLID_22_" class="st0" x1="99.9" y1="200.5" x2="191.8" y2="242.3"/>
		<line id="XMLID_25_" class="st0" x1="158.1" y1="336" x2="248.3" y2="373.7"/>
		<line id="XMLID_27_" class="st0" x1="158.1" y1="336" x2="29.5" y2="391.8"/>
		<line id="XMLID_28_" class="st0" x1="158.9" y1="336.5" x2="100.6" y2="201.7"/>
		<line id="XMLID_29_" class="st0" x1="100.2" y1="200.6" x2="-26.1" y2="255.8"/>
		<line id="XMLID_30_" class="st1" x1="33.5" y1="389.4" x2="-23.8" y2="252.7"/>
		<line id="XMLID_31_" class="st1" x1="126.1" y1="430.9" x2="68" y2="295.1"/>
	</g>
	<g id="XMLID_42_">
		
			<rect id="XMLID_48_" x="186" y="-10.7" transform="matrix(-0.8982 0.4396 -0.4396 -0.8982 505.3479 -4.1282)" class="st0" width="134.3" height="134.3"/>
		
			<rect id="XMLID_47_" x="155.8" y="79.8" transform="matrix(-0.8982 0.4396 -0.4396 -0.8982 487.7891 180.9723)" class="st1" width="134.3" height="134.3"/>
		<line id="XMLID_46_" class="st0" x1="128.8" y1="114.9" x2="162.8" y2="25.7"/>
		<line id="XMLID_45_" class="st0" x1="192.3" y1="236.4" x2="222.8" y2="146"/>
		<line id="XMLID_44_" class="st0" x1="317" y1="178.9" x2="343.5" y2="86.8"/>
		<line id="XMLID_43_" class="st0" x1="253.5" y1="57.3" x2="284" y2="-33.4"/>
	</g>
</g>
</svg>
