<?xml version="1.0" encoding="utf-8"?>
<!-- Generator: Adobe Illustrator 19.0.0, SVG Export Plug-In . SVG Version: 6.00 Build 0)  -->
<svg version="1.1" id="Layer_1" xmlns="http://www.w3.org/2000/svg" xmlns:xlink="http://www.w3.org/1999/xlink" x="0px" y="0px"
	 viewBox="100 -82 700.9 664" style="enable-background:new 100 -82 700.9 664;" xml:space="preserve">
<style type="text/css">
	.st0{fill:none;stroke:#564A6D;stroke-miterlimit:10;}
	.st1{fill:none;stroke:#564A6D;stroke-width:3;stroke-miterlimit:10;}
</style>
<g id="XMLID_1_">
	
		<rect id="XMLID_2_" x="265.3" y="28.6" transform="matrix(-4.427336e-03 1 -1 -4.427336e-03 430.9948 -235.7317)" class="st0" width="135.1" height="136.1"/>
	
		<rect id="XMLID_3_" x="333.4" y="96.4" transform="matrix(-4.427336e-03 1 -1 -4.427336e-03 567.6379 -236.2129)" class="st1" width="136.1" height="136.1"/>
	<line id="XMLID_4_" class="st0" x1="332.1" y1="233.3" x2="264.4" y2="163.9"/>
	<line id="XMLID_5_" class="st0" x1="468.8" y1="232.3" x2="400.5" y2="164.1"/>
	<line id="XMLID_6_" class="st0" x1="471.2" y1="95.3" x2="401.1" y2="28.4"/>
	<line id="XMLID_7_" class="st0" x1="333.8" y1="96.3" x2="265" y2="28.8"/>
</g>
<g id="XMLID_41_">
	
		<rect id="XMLID_26_" x="404.5" y="93.2" transform="matrix(0.588 -0.8088 0.8088 0.588 61.2648 449.8601)" class="st0" width="135.5" height="143.1"/>
	<line id="XMLID_24_" class="st1" x1="551.6" y1="53.1" x2="454.3" y2="68.7"/>
	<line id="XMLID_23_" class="st1" x1="668.5" y1="141" x2="568.9" y2="152"/>
	<line id="XMLID_22_" class="st0" x1="590.5" y1="250.8" x2="490.2" y2="261.8"/>
	<line id="XMLID_25_" class="st0" x1="471.2" y1="163.2" x2="374.5" y2="177.6"/>
	<line id="XMLID_27_" class="st0" x1="471.3" y1="164" x2="550.6" y2="53.2"/>
	<line id="XMLID_28_" class="st0" x1="470.4" y1="163.9" x2="589.3" y2="250.2"/>
	<line id="XMLID_29_" class="st0" x1="590.2" y1="250.9" x2="669.7" y2="140.7"/>
	<line id="XMLID_30_" class="st1" x1="550.6" y1="53.2" x2="669.6" y2="141.6"/>
	<line id="XMLID_31_" class="st1" x1="454" y1="69.1" x2="569.7" y2="153.2"/>
</g>
<g id="XMLID_42_">
	
		<rect id="XMLID_48_" x="453.6" y="384.2" transform="matrix(0.588 -0.8088 0.8088 0.588 -150.5375 607.1222)" class="st0" width="134.3" height="134.3"/>
	
		<rect id="XMLID_47_" x="437.8" y="289.8" transform="matrix(0.588 -0.8088 0.8088 0.588 -80.6814 555.5098)" class="st1" width="134.3" height="134.3"/>
	<line id="XMLID_46_" class="st0" x1="600.2" y1="341.9" x2="614.5" y2="436.6"/>
	<line id="XMLID_45_" class="st0" x1="490.3" y1="263.9" x2="505.6" y2="358"/>
	<line id="XMLID_44_" class="st0" x1="409.5" y1="372.3" x2="426.9" y2="466.2"/>
	<line id="XMLID_43_" class="st0" x1="520" y1="450.8" x2="535.5" y2="545.2"/>
</g>
</svg>
