<?xml version="1.0" encoding="utf-8"?>
<!-- Generator: Adobe Illustrator 19.0.0, SVG Export Plug-In . SVG Version: 6.00 Build 0)  -->
<svg version="1.1" id="Layer_1" xmlns="http://www.w3.org/2000/svg" xmlns:xlink="http://www.w3.org/1999/xlink" x="0px" y="0px"
	 viewBox="0 0 294 573.5" style="enable-background:new 0 0 294 573.5;" xml:space="preserve">
<style type="text/css">
	.st0{fill:none;stroke:#9F939E;stroke-miterlimit:10;}
	.st1{fill:none;stroke:#9F939E;stroke-width:3;stroke-miterlimit:10;}
	.st2{fill:none;stroke:#000000;stroke-miterlimit:10;}
	.st3{fill:none;stroke:#000000;stroke-width:3;stroke-miterlimit:10;}
</style>
<g id="XMLID_1_">
	<rect id="XMLID_2_" x="79.4" y="7.6" class="st0" width="135.1" height="136.1"/>
	<rect id="XMLID_3_" x="11.3" y="76.6" class="st1" width="136.1" height="136.1"/>
	<line id="XMLID_4_" class="st0" x1="10.3" y1="75.6" x2="79.4" y2="7.6"/>
	<line id="XMLID_5_" class="st0" x1="11.9" y1="212.3" x2="79.8" y2="143.6"/>
	<line id="XMLID_6_" class="st0" x1="148.9" y1="214" x2="215.5" y2="143.7"/>
	<line id="XMLID_7_" class="st0" x1="147.3" y1="76.6" x2="214.5" y2="7.6"/>
</g>
<g id="XMLID_15_">
	<rect id="XMLID_21_" x="-207.6" y="314.6" class="st2" width="136.1" height="136.1"/>
	<rect id="XMLID_20_" x="-275.7" y="383.6" class="st3" width="136.1" height="136.1"/>
	<line id="XMLID_19_" class="st2" x1="-276.7" y1="382.6" x2="-207.6" y2="314.6"/>
	<line id="XMLID_18_" class="st2" x1="-275.1" y1="519.3" x2="-207.2" y2="450.6"/>
	<line id="XMLID_17_" class="st2" x1="-138.1" y1="521" x2="-71.5" y2="450.7"/>
	<line id="XMLID_16_" class="st2" x1="-139.7" y1="383.6" x2="-71.5" y2="314.6"/>
</g>
<rect id="XMLID_13_" x="-207.6" y="42.6" class="st2" width="136.1" height="136.1"/>
<rect id="XMLID_12_" x="-275.7" y="111.6" class="st3" width="136.1" height="136.1"/>
<line id="XMLID_11_" class="st2" x1="-276.7" y1="110.6" x2="-207.6" y2="42.6"/>
<line id="XMLID_10_" class="st2" x1="-275.1" y1="247.3" x2="-207.2" y2="178.6"/>
<line id="XMLID_9_" class="st2" x1="-138.1" y1="249" x2="-71.5" y2="178.7"/>
<line id="XMLID_8_" class="st2" x1="-139.7" y1="111.6" x2="-71.5" y2="42.6"/>
<g id="XMLID_41_">
	<rect id="XMLID_26_" x="79" y="144" class="st0" width="135.5" height="143.1"/>
	<line id="XMLID_24_" class="st1" x1="283.7" y1="214" x2="214.1" y2="144.5"/>
	<line id="XMLID_23_" class="st1" x1="281.5" y1="360.3" x2="214.1" y2="286.1"/>
	<line id="XMLID_22_" class="st0" x1="146.8" y1="361.7" x2="79" y2="287.1"/>
	<line id="XMLID_25_" class="st0" x1="147.5" y1="213.7" x2="79" y2="144"/>
	<line id="XMLID_27_" class="st0" x1="146.9" y1="214.2" x2="283.2" y2="213.2"/>
	<line id="XMLID_28_" class="st0" x1="146.5" y1="213.5" x2="146.5" y2="360.5"/>
	<line id="XMLID_29_" class="st0" x1="146.5" y1="361.5" x2="282.5" y2="360.9"/>
	<line id="XMLID_30_" class="st1" x1="283.2" y1="213.2" x2="281.7" y2="361.5"/>
	<line id="XMLID_31_" class="st1" x1="213.5" y1="144.5" x2="213.5" y2="287.5"/>
</g>
<rect id="XMLID_40_" x="-531" y="-0.4" class="st2" width="128.9" height="136.1"/>
<line id="XMLID_39_" class="st3" x1="-336.7" y1="68.6" x2="-402.5" y2="0"/>
<line id="XMLID_38_" class="st3" x1="-338.4" y1="205.3" x2="-402.5" y2="134.8"/>
<line id="XMLID_37_" class="st2" x1="-466.5" y1="206.7" x2="-531" y2="135.7"/>
<line id="XMLID_36_" class="st2" x1="-466.4" y1="68.6" x2="-531" y2="-0.4"/>
<line id="XMLID_35_" class="st2" x1="-466.4" y1="68.6" x2="-336.7" y2="67.6"/>
<line id="XMLID_34_" class="st2" x1="-466.5" y1="68.5" x2="-466.5" y2="206.5"/>
<line id="XMLID_33_" class="st2" x1="-466.7" y1="206.5" x2="-337.4" y2="206"/>
<line id="XMLID_32_" class="st3" x1="-336.7" y1="67.6" x2="-338.2" y2="206.5"/>
<line id="XMLID_14_" class="st3" x1="-402.5" y1="-0.5" x2="-402.5" y2="135.5"/>
<g id="XMLID_42_">
	<rect id="XMLID_48_" x="80.1" y="429.7" class="st0" width="134.3" height="134.3"/>
	<rect id="XMLID_47_" x="147.2" y="361.5" class="st1" width="134.3" height="134.3"/>
	<line id="XMLID_46_" class="st0" x1="282.5" y1="496.8" x2="214.4" y2="564"/>
	<line id="XMLID_45_" class="st0" x1="281" y1="362" x2="214" y2="429.8"/>
	<line id="XMLID_44_" class="st0" x1="145.8" y1="360.4" x2="80.1" y2="429.7"/>
	<line id="XMLID_43_" class="st0" x1="147.4" y1="495.8" x2="80.1" y2="564"/>
</g>
</svg>
