<?xml version="1.0" encoding="utf-8"?>
<!-- Generator: Adobe Illustrator 19.0.0, SVG Export Plug-In . SVG Version: 6.00 Build 0)  -->
<svg version="1.1" id="Layer_1" xmlns="http://www.w3.org/2000/svg" xmlns:xlink="http://www.w3.org/1999/xlink" x="0px" y="0px"
	 viewBox="426 -72 700.9 664" style="enable-background:new 426 -72 700.9 664;" xml:space="preserve">
<style type="text/css">
	.st0{fill:none;stroke:#564A6D;stroke-miterlimit:10;}
	.st1{fill:none;stroke:#564A6D;stroke-width:3;stroke-miterlimit:10;}
</style>
<g id="XMLID_1_">
	
		<rect id="XMLID_2_" x="965.6" y="-45.3" transform="matrix(0.9435 0.3314 -0.3314 0.9435 65.9123 -341.0985)" class="st0" width="135.1" height="136.1"/>
	
		<rect id="XMLID_3_" x="878.6" y="-2.7" transform="matrix(0.9435 0.3314 -0.3314 0.9435 75.1605 -310.0172)" class="st1" width="136.1" height="136.1"/>
	<line id="XMLID_4_" class="st0" x1="904.3" y1="-22.6" x2="992" y2="-63.9"/>
	<line id="XMLID_5_" class="st0" x1="860.5" y1="106.8" x2="947.3" y2="64.6"/>
	<line id="XMLID_6_" class="st0" x1="989.2" y1="153.9" x2="1075.3" y2="109.6"/>
	<line id="XMLID_7_" class="st0" x1="1033.2" y1="23.8" x2="1119.5" y2="-19.1"/>
</g>
<g id="XMLID_41_">
	
		<rect id="XMLID_26_" x="918.9" y="83.1" transform="matrix(-0.9435 -0.3314 0.3314 -0.9435 1866.3361 627.5269)" class="st0" width="135.5" height="143.1"/>
	<line id="XMLID_24_" class="st1" x1="1116.4" y1="198.6" x2="1073.6" y2="109.9"/>
	<line id="XMLID_23_" class="st1" x1="1065.7" y1="335.8" x2="1026.7" y2="243.6"/>
	<line id="XMLID_22_" class="st0" x1="938.2" y1="292.6" x2="898.9" y2="199.7"/>
	<line id="XMLID_25_" class="st0" x1="987.9" y1="153.2" x2="946.4" y2="64.7"/>
	<line id="XMLID_27_" class="st0" x1="987.2" y1="153.5" x2="1116.1" y2="197.7"/>
	<line id="XMLID_28_" class="st0" x1="987" y1="152.6" x2="938.4" y2="291.3"/>
	<line id="XMLID_29_" class="st0" x1="938" y1="292.3" x2="1066.4" y2="336.9"/>
	<line id="XMLID_30_" class="st1" x1="1116.1" y1="197.7" x2="1065.5" y2="337"/>
	<line id="XMLID_31_" class="st1" x1="1073.1" y1="109.7" x2="1025.7" y2="244.7"/>
</g>
<g id="XMLID_42_">
	
		<rect id="XMLID_48_" x="826.7" y="353.1" transform="matrix(-0.9435 -0.3314 0.3314 -0.9435 1597.9526 1112.962)" class="st0" width="134.3" height="134.3"/>
	
		<rect id="XMLID_47_" x="912.6" y="311" transform="matrix(-0.9435 -0.3314 0.3314 -0.9435 1778.8566 1059.5654)" class="st1" width="134.3" height="134.3"/>
	<line id="XMLID_46_" class="st0" x1="1021.5" y1="465" x2="934.9" y2="505.8"/>
	<line id="XMLID_45_" class="st0" x1="1064.7" y1="337.3" x2="979" y2="379"/>
	<line id="XMLID_44_" class="st0" x1="937.7" y1="291" x2="852.7" y2="334.6"/>
	<line id="XMLID_43_" class="st0" x1="894.2" y1="419.4" x2="808.2" y2="461.3"/>
</g>
<g id="XMLID_36_">
	
		<rect id="XMLID_50_" x="485.3" y="83.9" transform="matrix(0.7644 -0.6448 0.6448 0.7644 32.3034 392.2581)" class="st0" width="135.1" height="136.1"/>
	
		<rect id="XMLID_49_" x="477.8" y="180.3" transform="matrix(0.7644 -0.6448 0.6448 0.7644 -31.5216 410.4575)" class="st1" width="136.1" height="136.1"/>
	<line id="XMLID_40_" class="st0" x1="448.4" y1="240.1" x2="457.3" y2="143.5"/>
	<line id="XMLID_39_" class="st0" x1="537.7" y1="343.6" x2="545.4" y2="247.2"/>
	<line id="XMLID_38_" class="st0" x1="643.6" y1="256.5" x2="649.2" y2="159.8"/>
	<line id="XMLID_37_" class="st0" x1="553.8" y1="152.5" x2="560.7" y2="56.4"/>
</g>
<g id="XMLID_15_">
	
		<rect id="XMLID_35_" x="672.9" y="195.7" transform="matrix(-0.7644 0.6448 -0.6448 -0.7644 1479.0973 -6.0367)" class="st0" width="135.5" height="143.1"/>
	<line id="XMLID_34_" class="st1" x1="844.4" y1="177.8" x2="746.3" y2="169.6"/>
	<line id="XMLID_33_" class="st1" x1="936.9" y1="291.1" x2="837.6" y2="277.9"/>
	<line id="XMLID_32_" class="st0" x1="835" y1="379" x2="735" y2="365.6"/>
	<line id="XMLID_21_" class="st0" x1="740.1" y1="265.5" x2="642.8" y2="256.3"/>
	<line id="XMLID_20_" class="st0" x1="740" y1="266.2" x2="843.5" y2="177.5"/>
	<line id="XMLID_19_" class="st0" x1="739.1" y1="265.8" x2="834" y2="378.2"/>
	<line id="XMLID_18_" class="st0" x1="834.7" y1="379" x2="938.2" y2="291"/>
	<line id="XMLID_17_" class="st1" x1="843.5" y1="177.5" x2="937.9" y2="291.8"/>
	<line id="XMLID_16_" class="st1" x1="745.9" y1="169.9" x2="838.1" y2="279.3"/>
</g>
<g id="XMLID_8_">
	
		<rect id="XMLID_14_" x="855.2" y="414.8" transform="matrix(-0.7644 0.6448 -0.6448 -0.7644 1938.1575 255.6618)" class="st0" width="134.3" height="134.3"/>
	
		<rect id="XMLID_13_" x="862.8" y="319.5" transform="matrix(-0.7644 0.6448 -0.6448 -0.7644 1890.0205 82.6182)" class="st1" width="134.3" height="134.3"/>
	<line id="XMLID_12_" class="st0" x1="1025.9" y1="394.8" x2="1017" y2="490"/>
	<line id="XMLID_11_" class="st0" x1="937.8" y1="292.7" x2="930.2" y2="387.8"/>
	<line id="XMLID_10_" class="st0" x1="833.3" y1="378.6" x2="827.8" y2="474"/>
	<line id="XMLID_9_" class="st0" x1="921.9" y1="481.1" x2="914.4" y2="576.6"/>
</g>
</svg>
